<svg width="20" height="20" viewBox="0 0 20 20" fill="none" xmlns="http://www.w3.org/2000/svg">
<path d="M13.4375 0.833496C12.4767 0.889329 11.3736 1.42462 10.7178 2.10628C10.1253 2.72628 9.6578 3.64709 9.84863 4.53792C10.8928 4.56542 11.9409 4.01627 12.5684 3.3221C13.1542 2.67294 13.5983 1.76683 13.4375 0.833496ZM13.4945 4.5363C11.987 4.5363 11.3567 5.4624 10.3125 5.4624C9.23833 5.4624 8.25638 4.59489 6.95638 4.59489C5.18805 4.59572 2.5 6.23377 2.5 10.0929C2.5 13.6038 5.68138 17.5002 7.47721 17.5002C8.56805 17.511 8.8325 16.8143 10.3125 16.8068C11.7942 16.796 12.1139 17.5093 13.2064 17.5002C14.4364 17.491 15.397 16.1394 16.0986 15.0685C16.602 14.3019 16.8089 13.9104 17.1989 13.0438C14.3047 12.3104 13.7289 7.64322 17.1989 6.67822C16.5439 5.56072 14.632 4.5363 13.4945 4.5363Z" fill="black" fill-opacity="0.9"/>
</svg>
